<?xml version="1.0" encoding="UTF-8"?>
<svg id="Layer_1" xmlns="http://www.w3.org/2000/svg" version="1.1" viewBox="0 0 120 120">
  <!-- Generator: Adobe Illustrator 29.0.1, SVG Export Plug-In . SVG Version: 2.1.0 Build 192)  -->
  <defs>
    <style>
      .st0 {
        fill: #231f20;
      }
    </style>
  </defs>
  <path class="st0" d="M59.67,82.86l-27.95,6.9,6.9-27.95L90.98,9.46c3.56-3.56,9.34-3.56,12.91,0l8.14,8.14c3.56,3.56,3.56,9.34,0,12.91l-52.35,52.35Z"/>
  <path class="st0" d="M89.55,112.7H26.28c-10.47,0-18.98-8.52-18.98-18.98V30.45c0-10.47,8.52-18.98,18.98-18.98h42.88l-8.42,9.36H26.28c-5.31,0-9.63,4.32-9.63,9.63v63.27c0,5.31,4.32,9.63,9.63,9.63h63.27c5.31,0,9.63-4.32,9.63-9.63v-26.78l9.36-8.42v35.2c0,10.47-8.52,18.98-18.98,18.98Z"/>
</svg>