<?xml version="1.0" encoding="UTF-8"?>
<svg id="Layer_1" xmlns="http://www.w3.org/2000/svg" version="1.1" viewBox="0 0 120 120">
  <!-- Generator: Adobe Illustrator 29.0.1, SVG Export Plug-In . SVG Version: 2.1.0 Build 192)  -->
  <defs>
    <style>
      .st0 {
        fill: #231f20;
      }
    </style>
  </defs>
  <path class="st0" d="M55.14,92.14l-7.05,7.05c-7.91,7.91-20.79,8.52-29,.92-8.63-7.99-8.82-21.53-.58-29.77l27.17-27.17c5.3-5.3,12.78-7.11,19.57-5.43.74.17,1.46.4,2.17.66.68.24,1.34.53,1.98.85,1.99.97,3.85,2.28,5.49,3.92.56.56,1.08,1.15,1.57,1.76,1.55,1.95,1.31,4.79-.46,6.55h0c-2.11,2.11-5.56,1.88-7.45-.43-.23-.28-.47-.55-.73-.8-1.78-1.78-4.03-2.8-6.36-3.05-.97-.11-1.94-.08-2.91.08-2.11.35-4.16,1.34-5.81,2.98l-26.96,26.96c-3.92,3.92-4.45,10.26-.91,14.54,4.06,4.9,11.37,5.15,15.77.76l7.36-7.36c1.2-1.2,2.93-1.71,4.59-1.32.04.01.09.02.13.03,3.79.87,5.15,5.56,2.4,8.31Z"/>
  <path class="st0" d="M64.86,23.98l7.05-7.05c7.91-7.91,20.79-8.52,29-.92,8.63,7.99,8.82,21.53.58,29.77l-27.17,27.17c-5.3,5.3-12.78,7.11-19.57,5.43-.74-.17-1.46-.4-2.17-.66-.68-.24-1.34-.53-1.98-.85-1.99-.97-3.85-2.28-5.49-3.92-.56-.56-1.08-1.15-1.57-1.76-1.55-1.95-1.31-4.79.46-6.55h0c2.11-2.11,5.56-1.88,7.45.43.23.28.47.55.73.8,1.78,1.78,4.03,2.8,6.36,3.05.97.11,1.94.08,2.91-.08,2.11-.35,4.16-1.34,5.81-2.98l26.96-26.96c3.92-3.92,4.45-10.26.91-14.54-4.06-4.9-11.37-5.15-15.77-.76l-7.36,7.36c-1.2,1.2-2.93,1.71-4.59,1.32-.04-.01-.09-.02-.13-.03-3.79-.87-5.15-5.56-2.4-8.31Z"/>
</svg>